<?xml version="1.0" encoding="UTF-8"?>
<svg xmlns="http://www.w3.org/2000/svg" width="512" height="512" viewBox="0 0 512 512"><g><path d="M292.89,87.55c-.02-.1-.05-.21-.08-.31a41.7,41.7,0,0,0-10.53-19.02A39.305,39.305,0,0,0,254,56a40.015,40.015,0,0,0-40,40v7S245.51,110.88,292.89,87.55Z" fill="#57a4ff"/><path d="M182,224v64H326V224a40,40,0,0,0-40-40H270a16,16,0,0,1-32,0H222A40,40,0,0,0,182,224Z" fill="#57a4ff"/><path d="M496,408H464V356a28.031,28.031,0,0,0-28-28H264V296H372a28.031,28.031,0,0,0,28-28V36A28.031,28.031,0,0,0,372,8H140a28.031,28.031,0,0,0-28,28V268a28.031,28.031,0,0,0,28,28H248v32H76a28.031,28.031,0,0,0-28,28v52H16a8,8,0,0,0-8,8v80a8,8,0,0,0,8,8H96a8,8,0,0,0,8-8V416a8,8,0,0,0-8-8H64V356a12.01,12.01,0,0,1,12-12H248v64H216a8,8,0,0,0-8,8v80a8,8,0,0,0,8,8h80a8,8,0,0,0,8-8V416a8,8,0,0,0-8-8H264V344H436a12.01,12.01,0,0,1,12,12v52H416a8,8,0,0,0-8,8v80a8,8,0,0,0,8,8h80a8,8,0,0,0,8-8V416A8,8,0,0,0,496,408ZM88,424v64H24V424Zm88-200v56H140a12.01,12.01,0,0,1-12-12V36a12.01,12.01,0,0,1,12-12H372a12.01,12.01,0,0,1,12,12V268a12.01,12.01,0,0,1-12,12H336V224a48.051,48.051,0,0,0-48-48h-8v-6.46A48.012,48.012,0,0,0,304,128V96c0-.23-.01-.45-.03-.68a49.189,49.189,0,0,0-13.93-32.66A47.093,47.093,0,0,0,256,48a48.051,48.051,0,0,0-48,48v32a48.012,48.012,0,0,0,24,41.54V176h-8A48.051,48.051,0,0,0,176,224Zm80-64a32.036,32.036,0,0,1-32-32V112.08c1.88.12,3.99.2,6.35.2,12.94,0,32.94-2.34,57.65-12.79V128A32.036,32.036,0,0,1,256,160Zm8,15.32V184a8,8,0,0,1-16,0v-8.68a47.4,47.4,0,0,0,16,0ZM224,96.03V96a32.036,32.036,0,0,1,32-32c12.65,0,23.86,8.04,29.01,19.34-19.84,8.84-36.12,11.77-46.71,12.62A90.9,90.9,0,0,1,224,96.03ZM288,424v64H224V424ZM224,280V232a8,8,0,0,0-16,0v48H192V224a32.036,32.036,0,0,1,32-32h9.38a23.99,23.99,0,0,0,45.24,0H288a32.036,32.036,0,0,1,32,32v56H304V232a8,8,0,0,0-16,0v48ZM488,488H424V424h64Z" fill="#004fac"/></g></svg>
